<mxfile host="Electron" agent="Mozilla/5.0 (X11; Linux x86_64) AppleWebKit/537.36 (KHTML, like Gecko) draw.io/24.7.17 Chrome/128.0.6613.36 Electron/32.0.1 Safari/537.36" version="24.7.17">
  <diagram name="Page-1" id="2cc2dc42-3aac-f2a9-1cec-7a8b7cbee084">
    <mxGraphModel dx="1434" dy="843" grid="1" gridSize="10" guides="1" tooltips="1" connect="1" arrows="1" fold="1" page="1" pageScale="1" pageWidth="1100" pageHeight="850" background="none" math="0" shadow="0">
      <root>
        <mxCell id="0" />
        <mxCell id="1" parent="0" />
        <mxCell id="7026571954dc6520-1" value="" style="strokeWidth=1;shadow=0;dashed=0;align=center;html=1;shape=mxgraph.mockup.containers.browserWindow;rSize=0;strokeColor=#666666;mainText=,;recursiveResize=0;rounded=0;labelBackgroundColor=none;fontFamily=Verdana;fontSize=12" parent="1" vertex="1">
          <mxGeometry x="110" y="15" width="1050" height="820" as="geometry" />
        </mxCell>
        <mxCell id="7026571954dc6520-2" value="MEMVIZ" style="strokeWidth=1;shadow=0;dashed=0;align=center;html=1;shape=mxgraph.mockup.containers.anchor;fontSize=17;fontColor=#666666;align=left;" parent="7026571954dc6520-1" vertex="1">
          <mxGeometry x="60" y="12" width="110" height="26" as="geometry" />
        </mxCell>
        <mxCell id="7026571954dc6520-3" value="https://www.mem.viz" style="strokeWidth=1;shadow=0;dashed=0;align=center;html=1;shape=mxgraph.mockup.containers.anchor;rSize=0;fontSize=17;fontColor=#666666;align=left;" parent="7026571954dc6520-1" vertex="1">
          <mxGeometry x="130" y="60" width="250" height="26" as="geometry" />
        </mxCell>
        <mxCell id="PhWCfHcbl1yD6pP4gzPZ-5" value="Examples" style="strokeWidth=1;shadow=0;dashed=0;align=center;html=1;shape=mxgraph.mockup.forms.comboBox;strokeColor=#999999;fillColor=#ddeeff;align=left;fillColor2=#aaddff;mainText=;fontColor=#666666;fontSize=17;spacingLeft=3;" parent="7026571954dc6520-1" vertex="1">
          <mxGeometry x="880" y="120" width="160" height="40" as="geometry" />
        </mxCell>
        <mxCell id="PhWCfHcbl1yD6pP4gzPZ-14" value="&lt;font style=&quot;font-size: 27px;&quot;&gt;▶️&lt;/font&gt;" style="rounded=0;whiteSpace=wrap;html=1;strokeColor=default;" parent="7026571954dc6520-1" vertex="1">
          <mxGeometry x="10" y="120" width="40" height="40" as="geometry" />
        </mxCell>
        <mxCell id="PhWCfHcbl1yD6pP4gzPZ-15" value="&lt;font style=&quot;font-size: 27px;&quot;&gt;⏮️&lt;/font&gt;" style="rounded=0;whiteSpace=wrap;html=1;strokeColor=default;" parent="7026571954dc6520-1" vertex="1">
          <mxGeometry x="160" y="120" width="40" height="40" as="geometry" />
        </mxCell>
        <mxCell id="PhWCfHcbl1yD6pP4gzPZ-24" value="&lt;font style=&quot;font-size: 27px;&quot;&gt;⏭️&lt;/font&gt;" style="rounded=0;whiteSpace=wrap;html=1;strokeColor=default;" parent="7026571954dc6520-1" vertex="1">
          <mxGeometry x="210" y="120" width="40" height="40" as="geometry" />
        </mxCell>
        <mxCell id="PhWCfHcbl1yD6pP4gzPZ-26" value="&lt;font style=&quot;font-size: 27px;&quot;&gt;⏩&lt;/font&gt;" style="rounded=0;whiteSpace=wrap;html=1;strokeColor=default;" parent="7026571954dc6520-1" vertex="1">
          <mxGeometry x="110" y="120" width="40" height="40" as="geometry" />
        </mxCell>
        <mxCell id="PhWCfHcbl1yD6pP4gzPZ-25" value="&lt;font style=&quot;font-size: 27px;&quot;&gt;⏪&lt;/font&gt;" style="rounded=0;whiteSpace=wrap;html=1;strokeColor=default;" parent="7026571954dc6520-1" vertex="1">
          <mxGeometry x="60" y="120" width="40" height="40" as="geometry" />
        </mxCell>
        <mxCell id="PhWCfHcbl1yD6pP4gzPZ-27" value="&lt;font style=&quot;font-size: 30px;&quot;&gt;Code editor&lt;/font&gt;" style="rounded=0;whiteSpace=wrap;html=1;align=center;" parent="7026571954dc6520-1" vertex="1">
          <mxGeometry y="170" width="250" height="640" as="geometry" />
        </mxCell>
        <mxCell id="PhWCfHcbl1yD6pP4gzPZ-28" value="&lt;font style=&quot;font-size: 30px;&quot;&gt;Memory visualization&lt;/font&gt;" style="rounded=0;whiteSpace=wrap;html=1;" parent="7026571954dc6520-1" vertex="1">
          <mxGeometry x="260" y="170" width="780" height="640" as="geometry" />
        </mxCell>
        <mxCell id="PhWCfHcbl1yD6pP4gzPZ-29" value="" style="html=1;verticalLabelPosition=bottom;align=center;labelBackgroundColor=#ffffff;verticalAlign=top;strokeWidth=2;strokeColor=#0080F0;shadow=0;dashed=0;shape=mxgraph.ios7.icons.help;" parent="7026571954dc6520-1" vertex="1">
          <mxGeometry x="780" y="123.5" width="32.5" height="32.5" as="geometry" />
        </mxCell>
        <mxCell id="PhWCfHcbl1yD6pP4gzPZ-30" value="" style="html=1;verticalLabelPosition=bottom;align=center;labelBackgroundColor=#ffffff;verticalAlign=top;strokeWidth=2;strokeColor=#0080F0;shadow=0;dashed=0;shape=mxgraph.ios7.icons.volume;pointerEvents=1" parent="7026571954dc6520-1" vertex="1">
          <mxGeometry x="830" y="126" width="30" height="30" as="geometry" />
        </mxCell>
      </root>
    </mxGraphModel>
  </diagram>
</mxfile>
